<?xml version="1.0" encoding="utf-8"?>
<!-- Generator: Adobe Illustrator 15.0.2, SVG Export Plug-In . SVG Version: 6.00 Build 0)  -->
<!DOCTYPE svg PUBLIC "-//W3C//DTD SVG 1.1//EN" "http://www.w3.org/Graphics/SVG/1.1/DTD/svg11.dtd">
<svg version="1.1" id="Calque_1" xmlns="http://www.w3.org/2000/svg" xmlns:xlink="http://www.w3.org/1999/xlink" x="0px" y="0px"
	 width="310.909px" height="329.144px" viewBox="124.769 132.086 310.909 329.144"
	 enable-background="new 124.769 132.086 310.909 329.144" xml:space="preserve">
<g>
	<g>
		<polygon fill="#C4473A" points="156.898,382.866 133.832,193.626 280.221,140.93 426.614,193.626 403.549,382.866 
			280.221,451.701 		"/>
		<g>
			<path fill="#B3B3B3" d="M280.221,149.774l137.33,49.433l-21.75,178.453l-115.58,64.511l-115.575-64.511l-21.751-178.453
				L280.221,149.774 M280.221,132.086l-5.637,2.029l-137.326,49.433l-12.49,4.496l1.606,13.177l21.751,178.453l1.023,8.396
				l7.386,4.122l115.575,64.511l8.11,4.526l8.112-4.526l115.579-64.51l7.386-4.123l1.023-8.396l21.751-178.453l1.606-13.177
				l-12.49-4.496l-137.33-49.433L280.221,132.086L280.221,132.086z"/>
		</g>
	</g>
	<g>
		<polyline fill="#9E3D34" points="280.221,149.774 417.551,199.208 395.8,377.661 280.221,442.171 		"/>
	</g>
	<path fill="#FFFFFF" d="M381.756,259.567v16.651c0,11.413-2.682,19.797-8.055,25.154c-3.219,3.066-6.724,5.252-10.521,6.555
		c-3.792,1.296-8.526,1.947-14.193,1.947h-39.334c-6.595,0-11.314,1.416-14.144,4.249c-2.992,2.831-4.494,6.579-4.494,11.26v8.727
		h-21.126v-8.727c0-4.519-1.497-8.268-4.482-11.26c-2.839-2.833-7.556-4.249-14.142-4.249h-39.337
		c-5.818,0-10.655-0.671-14.489-2.012c-3.838-1.339-7.243-3.503-10.236-6.49c-5.367-5.357-8.052-13.741-8.052-25.154v-16.651h21.594
		v9.075c0,7.197,1.071,11.759,3.215,13.669c2.379,2.374,7.396,3.562,15.044,3.562h37.908c6.889,0,11.998,1.396,15.333,4.19
		c3.332,2.792,6.067,6.562,8.216,11.308c1.983-4.667,4.663-8.417,8.036-11.254c3.366-2.834,8.525-4.244,15.504-4.244h37.784
		c7.737,0,12.79-1.188,15.168-3.562c2.139-1.91,3.215-6.472,3.215-13.669v-9.075H381.756L381.756,259.567z"/>
</g>
</svg>
